<svg width="26" height="26" viewBox="0 0 26 26" fill="none" xmlns="http://www.w3.org/2000/svg">
<g id="icon/action/view_agenda_24px">
<path id="icon/action/view_agenda_24px_2" fill-rule="evenodd" clip-rule="evenodd" d="M22.074 21.4209L21.9254 4.42159C21.9206 3.87156 21.4666 3.42556 20.9167 3.43037L14.9169 3.48282C14.3669 3.48762 13.9209 3.94149 13.9257 4.49152L14.0743 21.4909C14.0791 22.0409 14.533 22.4869 15.083 22.4821L21.0827 22.4296C21.6327 22.4248 22.0788 21.971 22.074 21.4209ZM16.0655 20.4734L20.0653 20.4385L19.9342 5.43904L15.9343 5.474L16.0655 20.4734ZM6.06583 20.5608L10.0657 20.5259L9.93457 5.52645L5.93472 5.56141L6.06583 20.5608ZM11.9257 4.509L12.0743 21.5084C12.0792 22.0584 11.6331 22.5122 11.0831 22.5171L5.08335 22.5695C4.53339 22.5743 4.07946 22.1283 4.07465 21.5783L3.92605 4.57893C3.92125 4.0289 4.36731 3.57503 4.91728 3.57023L10.917 3.51778C11.467 3.51297 11.9209 3.95897 11.9257 4.509Z" fill="#2068BC" />
</g>
</svg>
