<svg width="18" height="18" viewBox="0 0 18 18" fill="none" xmlns="http://www.w3.org/2000/svg">
  <path fill-rule="evenodd" clip-rule="evenodd"
    d="M11.9659 11.255H12.7559L17.7459 16.255L16.2559 17.745L11.2559 12.755V11.965L10.9859 11.685C9.84586 12.665 8.36586 13.255 6.75586 13.255C3.16586 13.255 0.255859 10.345 0.255859 6.755C0.255859 3.165 3.16586 0.255005 6.75586 0.255005C10.3459 0.255005 13.2559 3.165 13.2559 6.755C13.2559 8.365 12.6659 9.845 11.6859 10.985L11.9659 11.255ZM2.25586 6.755C2.25586 9.245 4.26586 11.255 6.75586 11.255C9.24586 11.255 11.2559 9.245 11.2559 6.755C11.2559 4.26501 9.24586 2.255 6.75586 2.255C4.26586 2.255 2.25586 4.26501 2.25586 6.755Z"
    />
</svg>
